<?xml version="1.0" encoding="utf-8"?>
<!-- Generator: Adobe Illustrator 16.0.0, SVG Export Plug-In . SVG Version: 6.00 Build 0)  -->
<!DOCTYPE svg PUBLIC "-//W3C//DTD SVG 1.1//EN" "http://www.w3.org/Graphics/SVG/1.1/DTD/svg11.dtd">
<svg version="1.1" xmlns="http://www.w3.org/2000/svg" xmlns:xlink="http://www.w3.org/1999/xlink" x="0px" y="0px"
	 width="200px" height="200px" viewBox="0 0 732.395 732.395" enable-background="new 0 0 732.395 732.395"
	 xml:space="preserve">
<g id="Cercle_1_G">
	<g>
		<g>
			<path fill="#A01258" d="M507.229,606.362c-132.64,0-240.166-107.525-240.166-240.166s107.526-240.166,240.166-240.166
				c83.872,0,157.689,43.004,200.643,108.155C654.899,97.177,521.899,0,366.197,0C163.952,0,0,163.952,0,366.196
				c0,202.245,163.952,366.198,366.197,366.198c155.702,0,288.701-97.177,341.673-234.187
				C664.918,563.358,591.101,606.362,507.229,606.362z"/>
		</g>
	</g>
</g>
<g id="Cercle_3_M">
	<path fill="#621647" d="M507.096,147.262c-100.061,0-184.354,67.474-209.886,159.402c14.913-14.696,35.377-23.774,57.969-23.774
		c45.617,0,82.604,36.983,82.604,82.604c0,45.619-36.986,82.604-82.604,82.604c-22.434,0-42.766-8.957-57.652-23.473
		c25.906,91.355,109.916,158.282,209.569,158.282c120.298,0,217.821-97.523,217.821-217.823
		C724.917,244.784,627.394,147.262,507.096,147.262z"/>
</g>
</svg>
